PathFileType	4	(X/Y/Z)	C:\Users\Basilio\Documents\Thesis Gigler\squatting_fais\c3dfiles\073\SLS_front_pre3\markers_experimental.trc
DataRate	CameraRate	NumFrames	NumMarkers	Units	OrigDataRate	OrigDataStartFrame	OrigNumFrames
200.000000	200.000000	4	61	mm	200.000000	507	1353
Frame#	Time	FHD			LBHD			RBHD			C7			T10			CLAV			LSHO			LUUPA			LMUPA			LDUPA			LLEP			LMEP			LRAD			LUL			LRFIN			RSHO			RUPA1			RMUPA			RDUPA			RLEP			RMEP			RRAD			RUL			RUFIN			LASI			RASI			USACR			LSACR			RSACR			LTHI1			LTHI2			LTHI3			LTHI4			LLFC			LMFC			LTIB1			LTIB2			LTIB3			LTIB4			LLMAL			LMMAL			LHEE			LMT1			LMT2			LMT5			RTHI			RTHI2			RTHI3			RTHI4			RLFC			RMFC			RTIB1			RTIB2			RTIB3			RTIB4			RLMAL			RMMAL			RHEE			RMT1			RMT2			RMT5			
		X1	Y1	Z1	X2	Y2	Z2	X3	Y3	Z3	X4	Y4	Z4	X5	Y5	Z5	X6	Y6	Z6	X7	Y7	Z7	X8	Y8	Z8	X9	Y9	Z9	X10	Y10	Z10	X11	Y11	Z11	X12	Y12	Z12	X13	Y13	Z13	X14	Y14	Z14	X15	Y15	Z15	X16	Y16	Z16	X17	Y17	Z17	X18	Y18	Z18	X19	Y19	Z19	X20	Y20	Z20	X21	Y21	Z21	X22	Y22	Z22	X23	Y23	Z23	X24	Y24	Z24	X25	Y25	Z25	X26	Y26	Z26	X27	Y27	Z27	X28	Y28	Z28	X29	Y29	Z29	X30	Y30	Z30	X31	Y31	Z31	X32	Y32	Z32	X33	Y33	Z33	X34	Y34	Z34	X35	Y35	Z35	X36	Y36	Z36	X37	Y37	Z37	X38	Y38	Z38	X39	Y39	Z39	X40	Y40	Z40	X41	Y41	Z41	X42	Y42	Z42	X43	Y43	Z43	X44	Y44	Z44	X45	Y45	Z45	X46	Y46	Z46	X47	Y47	Z47	X48	Y48	Z48	X49	Y49	Z49	X50	Y50	Z50	X51	Y51	Z51	X52	Y52	Z52	X53	Y53	Z53	X54	Y54	Z54	X55	Y55	Z55	X56	Y56	Z56	X57	Y57	Z57	X58	Y58	Z58	X59	Y59	Z59	X60	Y60	Z60	X61	Y61	Z61	

508	2.535	-150.2854614257813	1420.944580078125	-797.3304443359377	-286.2090759277344	1404.59375	-823.971618652344	-312.7907714843751	1389.879028320313	-690.4405517578126	-348.9495239257813	1304.323364257813	-752.8157958984376	-527.9499511718751	1025.470947265625	-750.5723876953126	-252.0168762207032	1187.353881835938	-753.0021362304689	-269.9007568359376	1253.168090820313	-890.3350219726565	-194.5065155029297	1180.97509765625	-988.0574951171877	-153.2476501464844	1199.124877929688	-965.5640869140627	-132.7644653320313	1151.725952148438	-997.929138183594	-28.53955459594727	1126.5380859375	-1001.88037109375	-31.79407310485841	1072.553100585938	-956.3072509765627	231.1977844238282	1160.510375976563	-890.9510498046877	234.6848754882813	1157.9755859375	-965.6062011718752	311.6054382324219	1176.167602539063	-884.8074951171877	-255.7809753417969	1243.6572265625	-615.8753051757814	-169.9180755615235	1150.4189453125	-513.7729492187501	-130.8189849853516	1171.542358398438	-532.7268066406251	-107.2187118530274	1122.073486328125	-508.7657165527345	-14.75884437561036	1105.13330078125	-511.3445739746095	-19.31566238403321	1050.0302734375	-572.6758422851564	234.7569427490235	1139.5390625	-632.9660644531251	247.5583801269532	1146.533935546875	-557.4525756835939	323.2209777832032	1164.866943359375	-640.1337280273439	-415.0969848632814	851.252380371094	-891.3396606445315	-393.8298339843751	837.2041625976565	-644.7602539062501	-578.6660156250001	895.1636962890627	-749.4839477539064	-590.4008178710939	865.833679199219	-777.9949951171877	-587.8930053710939	861.261657714844	-722.5591430664064	-228.8150177001954	666.3754272460939	-947.5886840820315	-146.7208251953125	659.4135131835939	-926.090759277344	-131.699447631836	695.8694458007814	-895.1633300781252	-116.4660339355469	610.1229248046876	-916.5889892578127	-67.40541839599611	578.2805175781251	-916.157653808594	-71.16964721679689	570.3765869140626	-776.391784667969	112.2827377319336	487.988006591797	-860.8144531250002	105.8587341308594	419.7439880371095	-915.1389160156252	137.3311004638672	444.1609497070314	-893.4110107421877	195.6069335937501	392.8367309570314	-859.3123779296877	244.2660522460938	267.6909790039063	-885.679870605469	231.7537994384766	289.7245178222657	-800.6639404296877	233.1850738525391	200.3474884033204	-843.352966308594	377.1086120605469	368.5662536621094	-799.7906494140627	377.7037353515626	371.0256042480469	-838.763610839844	373.9000244140626	330.5043640136719	-893.0113525390627	-330.1981811523438	622.1914062500001	-596.1784667968751	-265.3334350585938	608.5530395507814	-601.6488647460939	-242.8702545166016	632.3726196289064	-606.4396362304689	-231.6228485107422	536.0829467773439	-628.0473632812501	-140.2640380859375	440.5831604003907	-663.9515991210939	-144.1737060546875	451.123504638672	-792.1211547851565	-173.2538604736328	299.4504394531251	-770.6729125976565	-227.1399688720704	230.7413787841797	-706.1425170898439	-211.2067565917969	223.1018371582032	-750.7747802734376	-254.4300384521485	198.8845672607422	-781.6843261718752	-354.4294433593751	98.36132812500003	-727.1817016601564	-344.2976074218751	127.4813842773438	-814.7466430664065	-432.1512145996095	84.85746002197267	-782.8110351562502	-209.2739715576172	53.80052185058595	-789.6773681640627	-209.7628326416016	52.75219345092775	-747.9670410156251	-255.2520904541016	35.54755783081055	-701.9209594726564	
509	2.54	-149.8188018798828	1419.996704101563	-797.6496582031252	-285.8983154296876	1403.493041992188	-824.1928710937502	-312.4238891601563	1388.805541992188	-690.6553955078126	-348.5528869628907	1303.285400390625	-752.9620361328126	-527.9311523437501	1024.6982421875	-750.5274047851564	-251.5924224853516	1186.306884765625	-753.0181274414064	-269.5742187500001	1252.081298828125	-890.452087402344	-194.242416381836	1179.709594726563	-988.1043701171877	-153.0007476806641	1198.025146484375	-965.6483154296877	-132.6212615966797	1150.672119140625	-998.0504150390627	-28.1634864807129	1125.239501953125	-1001.987609863281	-31.56640625000001	1071.476440429688	-956.4758300781252	231.5015869140626	1159.322998046875	-891.0493164062502	234.9905395507813	1156.877075195313	-965.7491455078127	311.8665161132813	1175.117431640625	-885.006042480469	-255.4278411865235	1242.5693359375	-616.0529174804689	-169.5004272460938	1149.557373046875	-513.9171752929689	-130.5023803710938	1170.589111328125	-532.8466186523439	-106.8719558715821	1121.085571289063	-508.840057373047	-14.33742904663086	1104.272705078125	-511.4305725097657	-19.0154037475586	1048.884033203125	-572.6621704101564	235.3281707763672	1138.514282226563	-632.5310058593751	247.8637695312501	1145.441528320313	-557.5794677734376	323.5742492675782	1163.72021484375	-640.4526977539064	-415.3359680175782	850.5561523437502	-891.1016235351565	-393.8865661621095	836.3669433593752	-644.8166503906251	-578.7518310546876	894.397399902344	-749.4761352539064	-590.5096435546876	865.0689697265627	-777.888122558594	-587.9633178710939	860.4578857421877	-722.4582519531251	-228.5245819091797	666.2629394531251	-947.8416748046877	-146.6173095703125	659.2078247070314	-925.9653930664065	-131.6463165283203	695.7070312500001	-895.0391845703127	-116.4189453125	609.5429687500001	-916.8105468750002	-67.20271301269533	578.2045898437501	-915.9866333007815	-70.96502685546876	570.3945312500001	-776.2224121093752	112.582389831543	488.0733642578126	-860.480895996094	106.2174301147461	419.8449096679689	-914.8105468750002	137.7125701904297	444.241424560547	-893.070495605469	196.0094146728516	393.039276123047	-859.003356933594	244.8204650878907	267.8617248535157	-885.4851684570315	232.2100982666016	289.9043273925782	-800.383728027344	233.7631225585938	200.5689697265626	-843.1201171875002	377.4296569824219	368.9452819824219	-799.246276855469	378.2545471191407	371.4674682617188	-838.5923461914065	374.3898315429688	330.8214111328126	-892.5947875976565	-329.9806823730469	621.5484008789064	-596.3571166992189	-265.0277099609376	607.9411010742189	-601.8571777343751	-242.6911010742188	631.9036254882814	-606.6749267578126	-231.2462768554688	535.6663208007814	-628.2703247070314	-139.7992401123047	440.3480224609376	-664.1606445312501	-143.7643280029297	450.8949584960939	-792.3353271484377	-173.0122833251953	299.2466735839844	-770.8999023437502	-226.8484497070313	230.7547607421876	-706.4488525390626	-211.0013580322266	222.9984588623047	-750.8993530273439	-254.2314147949219	198.7793731689454	-781.7659912109377	-354.3796386718751	98.36723327636722	-727.1884155273439	-344.2537841796876	127.4735565185547	-814.7623291015627	-432.1540832519532	84.89604949951173	-782.8024902343752	-209.2526245117188	53.80579757690431	-789.676208496094	-209.7381896972657	52.73366165161134	-747.9410400390626	-255.1788482666016	35.53443145751954	-701.8894042968751	
510	2.545	-149.5231323242188	1418.7861328125	-797.962585449219	-285.5576171875001	1402.453735351563	-824.3963623046877	-312.1798400878907	1387.802001953125	-690.9013061523439	-348.1455688476563	1302.298583984375	-753.1020507812501	-527.9810180664064	1023.969970703125	-750.5265502929689	-251.3789520263672	1185.372192382813	-753.1434326171876	-269.1850891113282	1251.008911132813	-890.569763183594	-193.8967285156251	1178.70751953125	-988.241149902344	-152.5715789794922	1196.946044921875	-965.7884521484377	-132.1783294677735	1149.446411132813	-998.1225585937502	-27.8720989227295	1124.243530273438	-1002.108825683594	-31.02373313903809	1070.349731445313	-956.2725219726565	231.7632293701172	1158.314697265625	-891.2210693359377	235.3322143554688	1155.681518554688	-966.022155761719	311.9588623046876	1173.887939453125	-884.9326782226565	-255.0147094726563	1241.5615234375	-616.3107299804689	-169.0784606933594	1148.675903320313	-513.9485473632814	-130.1687164306641	1169.681518554688	-533.0679931640626	-106.4403076171875	1120.232299804688	-508.8412475585939	-14.0156478881836	1103.342163085938	-511.5084838867189	-18.66594696044922	1047.919799804688	-572.6545410156251	237.3751678466797	1135.927856445313	-633.4876098632814	248.1904907226563	1144.359741210938	-557.7814941406251	323.9283142089844	1162.546142578125	-640.6056518554689	-415.5134277343751	849.838806152344	-891.2131347656252	-393.8995666503907	835.6033935546877	-644.9330444335939	-578.7803955078126	893.575622558594	-749.4346923828126	-590.6359863281251	864.3428344726565	-777.8984375000002	-588.0303955078126	859.625427246094	-722.4478149414064	-228.7522735595704	665.7067260742189	-947.409851074219	-146.509521484375	659.0291748046876	-925.7539672851565	-131.6427307128907	695.5585937500001	-894.9315185546877	-116.0265655517578	609.7436523437501	-916.2690429687502	-66.95523834228517	578.1322631835939	-915.870788574219	-70.8050003051758	570.3463745117189	-776.0582275390627	112.8645858764649	488.1929321289064	-860.159362792969	106.6319580078125	419.8922424316407	-914.397888183594	138.06201171875	444.372528076172	-892.7626953125002	196.3877868652344	393.2103271484376	-858.694519042969	245.3095397949219	268.0362854003907	-885.120056152344	232.5793609619141	290.1262207031251	-800.130554199219	234.2628784179688	200.7043609619141	-842.8291625976565	377.6884765625001	369.3329772949219	-798.8559570312502	378.6650695800782	371.8426208496094	-838.2208251953127	374.7853088378907	331.1473388671876	-892.1909179687502	-329.7496643066407	620.9478149414064	-596.5120239257814	-264.8003845214844	607.5119628906251	-601.8328857421876	-242.4712219238282	631.2975463867189	-606.7677001953126	-230.8527221679688	535.1858520507814	-628.4638671875001	-139.2902221679688	440.089324951172	-664.3585205078126	-143.3765716552735	450.6437988281251	-792.5867309570315	-172.853500366211	298.8695068359376	-771.0320434570315	-226.6287994384766	230.6338500976563	-706.5916137695314	-210.8593444824219	222.8493804931641	-750.9765014648439	-254.0487213134766	198.7080993652344	-781.8685302734377	-354.3656616210938	98.35861968994143	-727.1854248046876	-344.2014770507813	127.4800720214844	-814.809020996094	-432.1578369140626	84.92830657958986	-782.8288574218752	-209.2349395751954	53.80089950561525	-789.6647949218752	-209.7512969970704	52.71538543701173	-747.9569702148439	-255.2068634033204	35.55920410156251	-701.9403076171876	
511	2.55	-148.8330230712891	1417.900634765625	-798.1408691406252	-285.2105712890626	1401.313232421875	-824.5769042968752	-311.7369995117188	1386.805053710938	-691.1310424804689	-347.8046875000001	1301.271118164063	-753.2904663085939	-527.9584960937501	1023.333557128906	-750.5349731445314	-251.1168670654297	1184.066772460938	-753.2901000976564	-268.7607116699219	1249.90673828125	-890.6579589843752	-193.6192626953126	1177.573120117188	-988.344665527344	-152.2728424072266	1195.785400390625	-965.8762207031252	-131.7929992675782	1148.338500976563	-998.185241699219	-27.4355869293213	1122.91162109375	-1002.201782226563	-30.84274864196778	1069.126342773438	-956.5844726562502	232.1271209716797	1157.1171875	-891.381530761719	235.7444458007813	1154.47021484375	-965.957458496094	312.2890014648438	1172.758666992188	-885.0969238281252	-254.6545867919922	1240.740600585938	-616.4663085937501	-168.743408203125	1147.809936523438	-514.1416625976564	-129.7728729248047	1168.773193359375	-533.1348876953126	-106.0714492797852	1119.443115234375	-508.996063232422	-13.70873546600342	1102.291381835938	-511.5426330566407	-18.32419395446778	1046.943359375	-572.7218017578126	236.1145629882813	1136.167114257813	-632.8698730468751	248.5864257812501	1143.349243164063	-558.0014648437501	324.2943420410157	1161.36474609375	-640.9765625000001	-415.6774291992189	849.162048339844	-891.168151855469	-393.8894348144532	834.8052368164065	-644.9133300781251	-578.8015136718751	892.753845214844	-749.3347167968751	-590.6887207031251	863.5766601562502	-777.908630371094	-588.0094604492189	858.8985595703127	-722.4540405273439	-228.5525817871094	665.3904418945314	-947.3760986328127	-146.3487548828125	658.8604736328126	-925.608337402344	-131.7100830078125	695.4053344726564	-894.8616333007815	-115.9211044311524	609.6304321289064	-916.1402587890627	-66.71364593505861	578.1181030273439	-915.7158813476565	-70.60755157470705	570.3460693359376	-775.9066162109377	113.199577331543	488.3176879882814	-859.8710937500002	106.7809600830078	419.8962402343751	-914.089538574219	138.4564361572266	444.489471435547	-892.4864501953127	196.7622833251954	393.3850708007814	-858.4139404296877	245.7792663574219	268.2586364746094	-884.7686767578127	232.9544219970704	290.3468322753907	-799.8950805664065	234.7887268066407	200.9119873046876	-842.5711669921877	377.9891967773438	369.6505737304688	-798.3703613281252	378.8621215820313	372.1667480468751	-837.6655273437502	375.2678527832032	331.5556030273438	-891.7151489257815	-329.5084228515626	620.3215942382814	-596.6189575195314	-264.5484008789063	607.0134277343751	-601.9849853515626	-242.2467193603516	630.7684936523439	-606.8801269531251	-230.533920288086	534.6969604492189	-628.5328369140626	-138.7999572753907	439.7611389160157	-664.4794921875001	-142.9232482910157	450.3994750976564	-792.682312011719	-172.641098022461	298.6145324707032	-771.0611572265627	-226.4440917968751	230.4972229003907	-706.6042480468751	-210.701889038086	222.7263488769532	-751.0429687500001	-253.9481658935547	198.5391235351563	-781.8295898437502	-354.3315734863282	98.34333801269534	-727.1968383789064	-344.2287597656251	127.4716339111328	-814.7675781250002	-432.1389160156251	84.92900848388673	-782.8029785156252	-208.4305267333985	54.14766693115236	-788.6270751953127	-209.7526855468751	52.68332672119142	-747.9439697265626	-255.1761627197266	35.5419044494629	-701.9180297851564	
